<?xml version="1.0" encoding="utf-8"?>
<svg version="1.1" id="Layer_1" xmlns="http://www.w3.org/2000/svg" xmlns:xlink="http://www.w3.org/1999/xlink" x="0px" y="0px"
	 viewBox="0 0 477 539" style="enable-background:new 0 0 477 539;" xml:space="preserve">
<style type="text/css">
	.st0{enable-background:new    ;}
	.st1{fill:#FFFFFF;}
	.st2{fill:none;stroke:#FFFFFF;}
</style>
<g id="Group_57" transform="translate(-451 -131)">
	<g class="st0">
		<path class="st1" d="M607,343.1h-24.3v37.8h-18.9v-37.8h-99.9v-17.8l70.2-133.4h20.8l-70.2,133.4h79.1v-57.8h18.9v57.8H607V343.1z
			"/>
		<path class="st1" d="M766.6,245.9v135h-17.8v-26.5c-11.3,18.1-30.5,29.7-54.5,29.7c-38.1,0-69.7-30.8-69.7-70.7
			s31.6-70.7,69.7-70.7c24,0,43.2,11.6,54.5,29.7v-26.5H766.6z M748.8,313.4c0-30-23.2-53.5-53.2-53.5c-30,0-53.2,23.5-53.2,53.5
			s23.2,53.5,53.2,53.5C725.5,366.8,748.8,343.4,748.8,313.4z"/>
		<path class="st1" d="M915.1,311.2H867v48.1h-17.3v-48.1h-48.1v-17.3h48.1v-48.1H867v48.1h48.1V311.2z"/>
	</g>
	<g class="st0">
		<path class="st2" d="M607,568.1h-24.3v37.8h-18.9v-37.8h-99.9v-17.8l70.2-133.4h20.8l-70.2,133.4h79.1v-57.8h18.9v57.8H607V568.1z
			"/>
		<path class="st2" d="M766.6,470.9v135h-17.8v-26.5c-11.3,18.1-30.5,29.7-54.5,29.7c-38.1,0-69.7-30.8-69.7-70.7
			s31.6-70.7,69.7-70.7c24,0,43.2,11.6,54.5,29.7v-26.5H766.6z M748.8,538.4c0-30-23.2-53.5-53.2-53.5c-30,0-53.2,23.5-53.2,53.5
			s23.2,53.5,53.2,53.5C725.5,591.8,748.8,568.4,748.8,538.4z"/>
		<path class="st2" d="M915.1,536.2H867v48.1h-17.3v-48.1h-48.1v-17.3h48.1v-48.1H867v48.1h48.1V536.2z"/>
	</g>
</g>
</svg>
